<svg width="58" height="58" viewBox="0 0 58 58" fill="none" xmlns="http://www.w3.org/2000/svg">
<path fill-rule="evenodd" clip-rule="evenodd" d="M40.2542 0.375977C41.9962 0.375977 43.4681 1.53206 43.9447 3.11883H48.5502C53.7028 3.11883 57.9347 7.2697 57.9347 12.4575V48.1157C57.9347 53.3035 53.7028 57.4544 48.5502 57.4544H9.8279C4.67527 57.4544 0.443359 53.3035 0.443359 48.1157V12.4575C0.443359 7.2697 4.67527 3.11883 9.8279 3.11883H14.4365C14.9131 1.53206 16.385 0.375977 18.127 0.375977C19.869 0.375977 21.341 1.53206 21.8175 3.11883H36.5637C37.0402 1.53206 38.5122 0.375977 40.2542 0.375977ZM14.4365 10.8244C14.913 12.4113 16.385 13.5674 18.127 13.5674C19.8691 13.5674 21.3411 12.4113 21.8176 10.8244H36.5636C37.0401 12.4113 38.5121 13.5674 40.2542 13.5674C41.9962 13.5674 43.4682 12.4113 43.9447 10.8244H48.5502C49.5078 10.8244 50.2292 11.5857 50.2292 12.4575V14.0902H8.14892V12.4575C8.14892 11.5857 8.87031 10.8244 9.8279 10.8244H14.4365ZM8.14892 21.7958V48.1157C8.14892 48.9875 8.87031 49.7488 9.8279 49.7488H48.5502C49.5078 49.7488 50.2292 48.9875 50.2292 48.1157V21.7958H8.14892Z" fill="#919191"/>
</svg>
