<svg width="136" height="146" viewBox="0 0 136 146" fill="none" xmlns="http://www.w3.org/2000/svg">
<path d="M135.373 72.8717C135.373 106.543 107.85 133.838 73.8971 133.838C39.9448 133.838 12.4209 106.543 12.4209 72.8717C12.4209 39.2009 39.9448 11.9053 73.8971 11.9053C107.85 11.9053 135.373 39.2009 135.373 72.8717Z" fill="#FF9E2C"/>
<path d="M97.4834 19.6299C98.3118 19.6299 98.9834 18.9583 98.9834 18.1299C98.9834 17.3015 98.3118 16.6299 97.4834 16.6299L97.4834 19.6299ZM86.3262 19.6299L97.4834 19.6299L97.4834 16.6299L86.3262 16.6299L86.3262 19.6299Z" fill="#D57300"/>
<path d="M82.5605 15.5488C83.389 15.5488 84.0605 14.8773 84.0605 14.0488C84.0605 13.2204 83.389 12.5488 82.5605 12.5488L82.5605 15.5488ZM71.4033 15.5488L82.5605 15.5488L82.5605 12.5488L71.4033 12.5488L71.4033 15.5488Z" fill="#D57300"/>
<path d="M108.641 25.9414C109.469 25.9414 110.141 25.2698 110.141 24.4414C110.141 23.613 109.469 22.9414 108.641 22.9414L108.641 25.9414ZM97.4834 25.9414L108.641 25.9414L108.641 22.9414L97.4834 22.9414L97.4834 25.9414Z" fill="#D57300"/>
<path d="M116.918 33.0801C117.746 33.0801 118.418 32.4085 118.418 31.5801C118.418 30.7517 117.746 30.0801 116.918 30.0801L116.918 33.0801ZM105.761 33.0801L116.918 33.0801L116.918 30.0801L105.761 30.0801L105.761 33.0801Z" fill="#D57300"/>
<path d="M123.229 40.1162C124.058 40.1162 124.729 39.4446 124.729 38.6162C124.729 37.7878 124.058 37.1162 123.229 37.1162L123.229 40.1162ZM112.072 40.1162L123.229 40.1162L123.229 37.1162L112.072 37.1162L112.072 40.1162Z" fill="#D57300"/>
<path d="M128.075 48.8076C128.904 48.8076 129.575 48.136 129.575 47.3076C129.575 46.4792 128.904 45.8076 128.075 45.8076L128.075 48.8076ZM116.918 48.8076L128.075 48.8076L128.075 45.8076L116.918 45.8076L116.918 48.8076Z" fill="#D57300"/>
<path d="M131.696 58.8447C132.525 58.8447 133.196 58.1732 133.196 57.3447C133.196 56.5163 132.525 55.8447 131.696 55.8447L131.696 58.8447ZM120.539 58.8447L131.696 58.8447L131.696 55.8447L120.539 55.8447L120.539 58.8447Z" fill="#D57300"/>
<path d="M133.653 68.4023C134.482 68.4023 135.153 67.7308 135.153 66.9023C135.153 66.0739 134.482 65.4023 133.653 65.4023L133.653 68.4023ZM122.496 68.4023L133.653 68.4023L133.653 65.4023L122.496 65.4023L122.496 68.4023Z" fill="#D57300"/>
<path d="M134.004 76.7568C134.832 76.7568 135.504 76.0853 135.504 75.2568C135.504 74.4284 134.832 73.7568 134.004 73.7568L134.004 76.7568ZM122.847 76.7568L134.004 76.7568L134.004 73.7568L122.847 73.7568L122.847 76.7568Z" fill="#D57300"/>
<path d="M132.785 86.667C133.614 86.667 134.285 85.9954 134.285 85.167C134.285 84.3386 133.614 83.667 132.785 83.667L132.785 86.667ZM121.628 86.667L132.785 86.667L132.785 83.667L121.628 83.667L121.628 86.667Z" fill="#D57300"/>
<path d="M129.942 96.4961C130.771 96.4961 131.442 95.8245 131.442 94.9961C131.442 94.1677 130.771 93.4961 129.942 93.4961L129.942 96.4961ZM118.785 96.4961L129.942 96.4961L129.942 93.4961L118.785 93.4961L118.785 96.4961Z" fill="#D57300"/>
<path d="M124.364 106.975C125.193 106.975 125.864 106.303 125.864 105.475C125.864 104.646 125.193 103.975 124.364 103.975L124.364 106.975ZM113.207 106.975L124.364 106.975L124.364 103.975L113.207 103.975L113.207 106.975Z" fill="#D57300"/>
<path d="M118.786 113.862C119.615 113.862 120.286 113.191 120.286 112.362C120.286 111.534 119.615 110.862 118.786 110.862L118.786 113.862ZM107.629 113.862L118.786 113.862L118.786 110.862L107.629 110.862L107.629 113.862Z" fill="#D57300"/>
<path d="M110.623 121.578C111.451 121.578 112.123 120.907 112.123 120.078C112.123 119.25 111.451 118.578 110.623 118.578L110.623 121.578ZM99.4658 121.578L110.623 121.578L110.623 118.578L99.4658 118.578L99.4658 121.578Z" fill="#D57300"/>
<path d="M100.547 127.381C101.375 127.381 102.047 126.709 102.047 125.881C102.047 125.052 101.375 124.381 100.547 124.381L100.547 127.381ZM89.3896 127.381L100.547 127.381L100.547 124.381L89.3896 124.381L89.3896 127.381Z" fill="#D57300"/>
<path d="M89.3896 131.908C90.2181 131.908 90.8896 131.237 90.8896 130.408C90.8896 129.58 90.2181 128.908 89.3896 128.908L89.3896 131.908ZM78.2324 131.908L89.3896 131.908L89.3896 128.908L78.2324 128.908L78.2324 131.908Z" fill="#D57300"/>
<path d="M117.415 72.8668C117.415 102.897 92.8528 127.333 62.4391 127.333C32.0255 127.333 7.46289 102.897 7.46289 72.8668C7.46289 42.8368 32.0255 18.4004 62.4391 18.4004C92.8528 18.4004 117.415 42.8368 117.415 72.8668Z" fill="#F9CA24" stroke="#F0932B" stroke-width="13"/>
<path d="M63.0783 58.4492C62.9586 58.8825 63.1925 59.7243 63.7798 60.9746C64.4394 62.2448 65.2197 63.7815 66.1207 65.5848C67.0217 67.388 68.0012 69.3294 69.059 71.4091C70.1168 73.4888 71.0663 75.5386 71.9075 77.5584C72.8408 79.526 73.5314 81.3877 73.9792 83.1435C74.5191 84.847 74.6856 86.2142 74.4786 87.2452C74.2118 88.4927 73.4842 90.0017 72.2959 91.772C71.1275 93.47 69.7524 95.0722 68.1706 96.5784C66.6611 98.1045 65.1031 99.3841 63.4966 100.417C61.9623 101.47 60.6958 101.975 59.6972 101.933C59.1141 103.482 58.6107 104.742 58.1871 105.713C57.8357 106.704 57.6039 107.261 57.4918 107.386C56.9912 107.792 56.4582 108.033 55.8929 108.11C55.3475 108.115 54.7859 108.038 54.2082 107.878C53.6305 107.719 53.0989 107.533 52.6133 107.321C52.1278 107.109 51.7605 106.891 51.5115 106.667C51.3348 106.463 51.4235 105.438 51.7776 103.593C52.2039 101.768 52.7637 99.3186 53.4568 96.2457C52.6129 95.08 51.7528 93.8321 50.8766 92.5021C50.0925 91.1198 49.3607 89.8296 48.6812 88.6316C48.0739 87.4535 47.545 86.4136 47.0944 85.512C46.7361 84.5582 46.5445 83.8446 46.5198 83.3715C46.4826 82.6617 46.5775 81.7553 46.8044 80.6521C47.1035 79.5689 47.4288 78.5318 47.7802 77.5408C48.2038 76.5697 48.6597 75.7629 49.148 75.1206C49.6562 74.406 50.0909 74.0985 50.4519 74.1982C50.8852 74.3179 51.5162 75.2694 52.345 77.0526C53.1738 78.8359 54.0611 80.8296 55.0068 83.0338C55.9725 85.1658 56.8958 87.1695 57.7769 89.0449C58.6779 90.8481 59.4633 91.8034 60.1332 91.9106C60.4221 91.9904 60.8529 91.8374 61.4258 91.4515C61.9987 91.0657 62.5554 90.5976 63.0959 90.0474C63.6564 89.425 64.1447 88.7826 64.5607 88.1203C64.9768 87.458 65.2446 86.9102 65.3643 86.477C65.4716 85.8071 65.1431 84.7449 64.379 83.2903C63.707 81.7835 62.7761 80.0886 61.5862 78.2056C60.4885 76.2704 59.2564 74.2591 57.8898 72.1719C56.5431 70.0124 55.2748 67.9912 54.085 66.1082C52.9873 64.173 52.0563 62.4781 51.2922 61.0235C50.6202 59.5167 50.3379 58.4284 50.4451 57.7585C50.6122 56.872 51.4381 55.4291 52.9229 53.4298C54.4077 51.4305 56.129 49.4188 58.0869 47.3947C60.0448 45.3706 62.0251 43.547 64.0278 41.9238C66.0503 40.2285 67.7552 39.2614 69.1424 39.0228C69.5536 37.8151 69.8689 36.814 70.0882 36.0197C70.3275 35.1531 70.5132 34.6215 70.6453 34.4248C71.0813 33.6903 71.7662 33.18 72.7002 32.8938C73.7263 32.5554 74.7647 32.4536 75.8156 32.5884C76.8864 32.6509 77.8252 32.9101 78.6319 33.3661C79.4387 33.822 79.8606 34.4049 79.8978 35.1146C79.8902 35.4234 79.6671 36.3722 79.2284 37.9609C78.8818 39.4973 78.3596 41.5292 77.6616 44.0567C78.7097 45.0456 79.7018 46.0968 80.6379 47.2102C81.574 48.3236 82.3556 49.4333 82.9829 50.5391C83.7023 51.5927 84.2412 52.5965 84.5995 53.5503C84.9579 54.5042 85.0834 55.3161 84.9761 55.986C84.829 56.8003 84.3916 57.9619 83.6641 59.4708C83.0087 60.9997 82.1728 62.4787 81.1564 63.9078C80.14 65.337 78.9929 66.5358 77.7151 67.5042C76.5294 68.4203 75.3589 68.7188 74.2035 68.3997C73.3369 68.1604 72.8404 67.2849 72.7138 65.7733C72.6594 64.2816 72.7271 62.6293 72.9168 60.8164C73.1265 58.9313 73.3885 57.1384 73.7027 55.4376C74.1091 53.6845 74.3398 52.427 74.3948 51.6649C74.2778 51.244 73.9804 50.7733 73.5024 50.2527C73.0244 49.7321 72.5326 49.402 72.0271 49.2624C71.5216 49.1228 70.7782 49.4227 69.7968 50.1621C68.9076 50.8491 67.9685 51.7168 66.9796 52.7649C66.0106 53.7408 65.14 54.7828 64.3677 55.8908C63.6875 56.9465 63.2577 57.7993 63.0783 58.4492Z" fill="#FE8F13"/>
<path d="M56.5304 58.4522C56.4107 58.8854 56.6446 59.7272 57.232 60.9775C57.8916 62.2477 58.6719 63.7845 59.5729 65.5877C60.4739 67.3909 61.4533 69.3324 62.5111 71.412C63.5689 73.4917 64.5184 75.5415 65.3596 77.5614C66.293 79.529 66.9835 81.3906 67.4313 83.1464C67.9712 84.8499 68.1377 86.2172 67.9307 87.2481C67.664 88.4957 66.9364 90.0046 65.748 91.7749C64.5796 93.473 63.2045 95.0751 61.6228 96.5813C60.1133 98.1075 58.5552 99.3871 56.9487 100.42C55.4144 101.473 54.1479 101.978 53.1493 101.936C52.5662 103.484 52.0628 104.744 51.6392 105.716C51.2878 106.707 51.0561 107.264 50.944 107.389C50.4433 107.795 49.9103 108.036 49.345 108.113C48.7996 108.118 48.2381 108.041 47.6604 107.881C47.0827 107.722 46.551 107.536 46.0655 107.324C45.5799 107.112 45.2127 106.894 44.9637 106.67C44.7869 106.466 44.8756 105.441 45.2297 103.596C45.6561 101.771 46.2158 99.3215 46.9089 96.2486C46.065 95.0829 45.205 93.8351 44.3287 92.505C43.5447 91.1227 42.8129 89.8325 42.1333 88.6345C41.526 87.4564 40.9971 86.4166 40.5466 85.515C40.1882 84.5611 39.9967 83.8476 39.9719 83.3744C39.9347 82.6646 40.0296 81.7582 40.2565 80.6551C40.5557 79.5719 40.8809 78.5347 41.2323 77.5437C41.6559 76.5726 42.1119 75.7658 42.6002 75.1235C43.1084 74.4089 43.543 74.1015 43.9041 74.2012C44.3374 74.3208 44.9684 75.2723 45.7972 77.0556C46.626 78.8388 47.5132 80.8326 48.459 83.0367C49.4246 85.1687 50.348 87.1724 51.229 89.0478C52.1301 90.8511 52.9155 91.8063 53.5854 91.9136C53.8742 91.9933 54.3051 91.8403 54.8779 91.4544C55.4508 91.0686 56.0075 90.6006 56.5481 90.0504C57.1086 89.4279 57.5968 88.7856 58.0129 88.1233C58.4289 87.461 58.6968 86.9132 58.8164 86.4799C58.9237 85.81 58.5953 84.7478 57.8311 83.2933C57.1592 81.7865 56.2282 80.0916 55.0384 78.2086C53.9407 76.2733 52.7085 74.2621 51.3419 72.1748C49.9952 70.0154 48.727 67.9941 47.5371 66.1112C46.4394 64.1759 45.5085 62.481 44.7443 61.0265C44.0724 59.5196 43.79 58.4313 43.8973 57.7614C44.0644 56.8749 44.8903 55.432 46.375 53.4327C47.8598 51.4334 49.5811 49.4217 51.5391 47.3976C53.497 45.3735 55.4773 43.5499 57.4799 41.9268C59.5025 40.2314 61.2074 39.2644 62.5945 39.0257C63.0057 37.818 63.321 36.817 63.5404 36.0226C63.7797 35.1561 63.9654 34.6244 64.0974 34.4277C64.5334 33.6932 65.2184 33.1829 66.1523 32.8968C67.1784 32.5583 68.2169 32.4565 69.2678 32.5913C70.3386 32.6538 71.2774 32.9131 72.0841 33.369C72.8908 33.825 73.3128 34.4078 73.3499 35.1175C73.3424 35.4263 73.1193 36.3751 72.6805 37.9638C72.334 39.5002 71.8117 41.5322 71.1137 44.0596C72.1619 45.0486 73.154 46.0997 74.0901 47.2131C75.0261 48.3266 75.8078 49.4362 76.435 50.5421C77.1544 51.5957 77.6933 52.5994 78.0517 53.5533C78.41 54.5072 78.5356 55.319 78.4283 55.9889C78.2811 56.8032 77.8438 57.9648 77.1162 59.4737C76.4609 61.0026 75.625 62.4816 74.6085 63.9108C73.5921 65.3399 72.445 66.5387 71.1672 67.5071C69.9816 68.4232 68.8111 68.7217 67.6556 68.4027C66.7891 68.1634 66.2925 67.2879 66.1659 65.7762C66.1115 64.2845 66.1792 62.6322 66.369 60.8193C66.5786 58.9342 66.8406 57.1413 67.1548 55.4405C67.5612 53.6874 67.7919 52.4299 67.8469 51.6679C67.73 51.247 67.4325 50.7762 66.9545 50.2556C66.4765 49.735 65.9848 49.4049 65.4793 49.2653C64.9738 49.1257 64.2303 49.4256 63.249 50.165C62.3597 50.8521 61.4207 51.7197 60.4317 52.7678C59.4628 53.7438 58.5921 54.7857 57.8198 55.8937C57.1397 56.9494 56.7099 57.8022 56.5304 58.4522Z" fill="#FFAC30"/>
</svg>
